#!OML:ASF G:\JayActor3\Patient Classification 1\Patient 1\Session 6\male.ASF
:FULLY-SPECIFIED
:DEGREES
1054
root 25.4892 14.9908 -18.8004 196.358 -65.9447 -181.849
lowerback 34.6858 0.852258 5.13311
upperback 15.3413 0.0525158 -0.293074
thorax -0.62352 -0.65909 -3.00832
lowerneck 6.24141 12.6412 6.814
upperneck -19.5592 15.4844 -17.453
head -4.82829 8.43863 -7.28906
rclavicle 7.55382e-015 -3.77691e-015
rhumerus -21.3803 7.04159 -80.8889
rradius 61.1553
rwrist -2.64069
rhand -30.3107 -7.47852
rfingers 7.12502
rthumb -3.61752 -37.4276
lclavicle 7.55382e-015 -3.77691e-015
lhumerus -0.300651 -11.9492 66.1445
lradius 63.9459
lwrist 31.869
lhand -28.3051 5.76266
lfingers 7.12502
lthumb -1.68056 35.7358
rfemur -47.1973 -9.80304 25.8655
rtibia 65.6528
rfoot -33.3156 -20.2
rtoes -2.97537
lfemur -56.7531 16.4143 -30.1315
ltibia 55.1821
lfoot -15.6086 12.1003
ltoes -9.00014
1055
root 25.4433 14.9882 -18.8163 195.895 -65.9357 -181.354
lowerback 34.7393 0.894169 5.15527
upperback 15.4084 0.0908019 -0.335456
thorax -0.565219 -0.641082 -3.07626
lowerneck 6.22103 12.6102 6.81482
upperneck -19.5498 15.4453 -17.4288
head -4.8291 8.41775 -7.28008
rclavicle 3.22031e-014 -5.76476e-015
rhumerus -21.396 7.04982 -80.8928
rradius 61.1838
rwrist -2.70556
rhand -30.3038 -7.45874
rfingers 7.12502
rthumb -3.6108 -37.4079
lclavicle 3.22031e-014 -5.76476e-015
lhumerus -0.404919 -12.1796 66.2516
lradius 63.8244
lwrist 31.7825
lhand -27.9202 5.92931
lfingers 7.12502
lthumb -1.30881 35.905
rfemur -46.9954 -9.8928 26.0585
rtibia 65.678
rfoot -33.4075 -20.1096
rtoes -3.14096
lfemur -56.5877 16.2006 -29.9177
ltibia 54.8586
lfoot -15.2565 12.5777
ltoes -7.65899
1056
root 25.3956 14.9811 -18.8305 195.436 -65.9217 -180.871
lowerback 34.7708 0.932324 5.15403
upperback 15.4567 0.12197 -0.374263
thorax -0.521096 -0.62705 -3.12602
lowerneck 6.19762 12.595 6.79465
upperneck -19.5338 15.4283 -17.3871
head -4.82829 8.40748 -7.2619
rclavicle 6.20208e-014 -1.2921e-014
rhumerus -21.4451 7.07058 -80.8984
rradius 61.1642
rwrist -2.74597
rhand -30.2648 -7.43198
rfingers 7.12502
rthumb -3.57319 -37.3818
lclavicle 6.20208e-014 -1.2921e-014
lhumerus -0.506699 -12.3923 66.3864
lradius 63.6537
lwrist 31.705
lhand -27.5722 6.0678
lfingers 7.12502
lthumb -0.972766 36.0453
rfemur -46.822 -10.0176 26.2418
rtibia 65.7623
rfoot -33.494 -20.0117
rtoes -3.3687
lfemur -56.4202 15.9167 -29.5475
ltibia 54.9425
lfoot -15.0923 12.9349
ltoes -6.38811
1057
root 25.3462 14.9686 -18.8435 195.01 -65.9137 -180.425
lowerback 34.7791 0.96936 5.14266
upperback 15.4917 0.152261 -0.419247
thorax -0.484071 -0.612479 -3.17678
lowerneck 6.16621 12.5807 6.79452
upperneck -19.5164 15.4152 -17.342
head -4.82371 8.39694 -7.24462
rclavicle 2.34566e-014 -2.78299e-015
rhumerus -21.5122 7.05081 -80.9188
rradius 61.0818
rwrist -2.74423
rhand -30.203 -7.37854
rfingers 7.12502
rthumb -3.51353 -37.3293
lclavicle 2.34566e-014 -2.78299e-015
lhumerus -0.572664 -12.6153 66.5304
lradius 63.4401
lwrist 31.6356
lhand -27.2384 6.21302
lfingers 7.12502
lthumb -0.650305 36.1918
rfemur -46.6873 -10.1764 26.406
rtibia 65.9207
rfoot -33.5966 -19.8979
rtoes -3.61942
lfemur -56.2864 15.6187 -29.1113
ltibia 55.3028
lfoot -15.1074 13.1353
ltoes -5.35734
1058
root 25.2954 14.9516 -18.8559 194.652 -65.918 -180.053
lowerback 34.7678 1.00412 5.10428
upperback 15.5168 0.174702 -0.466824
thorax -0.452719 -0.602047 -3.21378
lowerneck 6.12556 12.5702 6.79329
upperneck -19.5084 15.4058 -17.294
head -4.8203 8.38752 -7.2261
rclavicle -2.98177e-014 4.51241e-014
rhumerus -21.5801 7.00213 -80.9483
rradius 60.9305
rwrist -2.69962
rhand -30.136 -7.30735
rfingers 7.12502
rthumb -3.44884 -37.2592
lclavicle -2.98177e-014 4.51241e-014
lhumerus -0.591299 -12.8307 66.6813
lradius 63.1855
lwrist 31.574
lhand -26.9193 6.36281
lfingers 7.12502
lthumb -0.34218 36.3423
rfemur -46.5887 -10.3616 26.5364
rtibia 66.1441
rfoot -33.7095 -19.789
rtoes -3.91341
lfemur -56.2155 15.3719 -28.7168
ltibia 55.7893
lfoot -15.2639 13.2162
ltoes -4.68799
1059
root 25.2443 14.9332 -18.8684 194.373 -65.9443 -179.767
lowerback 34.7535 1.0387 5.04914
upperback 15.5321 0.19523 -0.518306
thorax -0.431821 -0.592466 -3.24537
lowerneck 6.0741 12.5567 6.80718
upperneck -19.5143 15.3904 -17.2561
head -4.81761 8.3743 -7.21282
rclavicle 3.18055e-014 1.68967e-014
rhumerus -21.6511 6.89573 -80.9889
rradius 60.7182
rwrist -2.61709
rhand -30.0755 -7.22255
rfingers 7.12502
rthumb -3.39034 -37.1753
lclavicle 3.18055e-014 1.68967e-014
lhumerus -0.551408 -13.0568 66.8315
lradius 62.9088
lwrist 31.5096
lhand -26.6179 6.48889
lfingers 7.12502
lthumb -0.0510897 36.4686
rfemur -46.5062 -10.5626 26.6289
rtibia 66.3997
rfoot -33.8319 -19.6882
rtoes -4.21661
lfemur -56.2135 15.2052 -28.4275
ltibia 56.271
lfoot -15.4059 13.2278
ltoes -4.36294
1060
root 25.1938 14.9178 -18.8814 194.175 -66.0022 -179.57
lowerback 34.7526 1.06562 4.96875
upperback 15.5374 0.20226 -0.565595
thorax -0.428362 -0.590856 -3.25489
lowerneck 6.02672 12.5445 6.80799
upperneck -19.5518 15.3692 -17.2369
head -4.82524 8.3607 -7.20603
rclavicle -3.97569e-014 7.35503e-015
rhumerus -21.7221 6.77436 -81.0318
rradius 60.4575
rwrist -2.52073
rhand -30.0396 -7.12805
rfingers 7.12502
rthumb -3.35571 -37.0814
lclavicle -3.97569e-014 7.35503e-015
lhumerus -0.475649 -13.2588 66.9923
lradius 62.6329
lwrist 31.4315
lhand -26.3332 6.58638
lfingers 7.12502
lthumb 0.223906 36.566
rfemur -46.4114 -10.7698 26.6818
rtibia 66.6466
rfoot -33.9551 -19.6076
rtoes -4.51054
lfemur -56.2469 15.1114 -28.2649
ltibia 56.6863
lfoot -15.4891 13.2934
ltoes -4.16289
1061
root 25.1443 14.9075 -18.895 194.062 -66.0919 -179.467
lowerback 34.7774 1.09137 4.87879
upperback 15.5315 0.20862 -0.614902
thorax -0.446349 -0.589804 -3.26083
lowerneck 5.98098 12.5243 6.8203
upperneck -19.6177 15.333 -17.2333
head -4.84106 8.34008 -7.20787
rclavicle -3.53837e-014 1.64991e-014
rhumerus -21.808 6.60309 -81.0823
rradius 60.1661
rwrist -2.41714
rhand -30.0304 -7.03834
rfingers 7.12502
rthumb -3.34677 -36.9918
lclavicle -3.53837e-014 1.64991e-014
lhumerus -0.354473 -13.4712 67.1512
lradius 62.3808
lwrist 31.336
lhand -26.0743 6.63453
lfingers 7.12502
lthumb 0.474026 36.6137
rfemur -46.2883 -10.9682 26.6913
rtibia 66.8546
rfoot -34.0769 -19.5562
rtoes -4.77743
lfemur -56.2702 15.0502 -28.2067
ltibia 57.0162
lfoot -15.5276 13.4432
ltoes -4.08338
1062
root 25.0958 14.9016 -18.9093 194.009 -66.2104 -179.421
lowerback 34.8218 1.11573 4.78995
upperback 15.5158 0.21677 -0.663383
thorax -0.481562 -0.587579 -3.26669
lowerneck 5.9307 12.4948 6.82572
upperneck -19.7083 15.2796 -17.2313
head -4.86618 8.31112 -7.21082
rclavicle -3.4191e-014 8.15017e-015
rhumerus -21.9088 6.39792 -81.1379
rradius 59.8617
rwrist -2.32397
rhand -30.0492 -6.963
rfingers 7.12502
rthumb -3.365 -36.9162
lclavicle -3.4191e-014 8.15017e-015
lhumerus -0.193496 -13.687 67.3049
lradius 62.1648
lwrist 31.217
lhand -25.8528 6.6298
lfingers 7.12502
lthumb 0.687874 36.6084
rfemur -46.1442 -11.1467 26.6757
rtibia 67.0133
rfoot -34.191 -19.546
rtoes -5.02696
lfemur -56.2659 14.9948 -28.2067
ltibia 57.2722
lfoot -15.5591 13.6113
ltoes -4.049
1063
root 25.0478 14.8987 -18.924 194.024 -66.3537 -179.427
lowerback 34.8709 1.14296 4.71537
upperback 15.491 0.235691 -0.717348
thorax -0.527127 -0.578173 -3.28891
lowerneck 5.87644 12.4485 6.8493
upperneck -19.8172 15.2023 -17.2302
head -4.89739 8.2688 -7.21782
rclavicle 8.34896e-015 4.83047e-014
rhumerus -22.0295 6.13967 -81.2023
rradius 59.5541
rwrist -2.23752
rhand -30.0961 -6.86956
rfingers 7.12502
rthumb -3.41024 -36.822
lclavicle 8.34896e-015 4.83047e-014
lhumerus 0.00742233 -13.9245 67.4433
lradius 62.0071
lwrist 31.0862
lhand -25.6766 6.58091
lfingers 7.12502
lthumb 0.858139 36.5589
rfemur -45.9955 -11.3 26.6406
rtibia 67.1231
rfoot -34.303 -19.5824
rtoes -5.2634
lfemur -56.2275 14.918 -28.2319
ltibia 57.4647
lfoot -15.6179 13.7656
ltoes -4.06037
1064
root 24.9997 14.8981 -18.9389 194.088 -66.5142 -179.45
lowerback 34.9069 1.17238 4.66182
upperback 15.4575 0.266422 -0.776107
thorax -0.576018 -0.560389 -3.33088
lowerneck 5.8199 12.3864 6.89191
upperneck -19.9331 15.1045 -17.2265
head -4.93144 8.21458 -7.22723
rclavicle 0 1.92821e-014
rhumerus -22.1633 5.84727 -81.2753
rradius 59.249
rwrist -2.16034
rhand -30.15 -6.77096
rfingers 7.12502
rthumb -3.46232 -36.7226
lclavicle 0 1.92821e-014
lhumerus 0.251746 -14.1806 67.5524
lradius 61.9026
lwrist 30.9625
lhand -25.5543 6.50667
lfingers 7.12502
lthumb 0.976198 36.4842
rfemur -45.8526 -11.426 26.6031
rtibia 67.1842
rfoot -34.4198 -19.6626
rtoes -5.4976
lfemur -56.1621 14.8019 -28.246
ltibia 57.6052
lfoot -15.7119 13.9079
ltoes -4.15225
1065
root 24.9514 14.8995 -18.9534 194.199 -66.6931 -179.479
lowerback 34.9138 1.20056 4.63839
upperback 15.4202 0.306545 -0.840525
thorax -0.617543 -0.534599 -3.3978
lowerneck 5.75255 12.3091 6.95847
upperneck -20.0415 14.9886 -17.2184
head -4.96194 8.14888 -7.23743
rclavicle 1.47101e-014 2.24627e-014
rhumerus -22.293 5.5294 -81.3573
rradius 58.9487
rwrist -2.0934
rhand -30.2107 -6.65723
rfingers 7.12502
rthumb -3.52098 -36.6079
lclavicle 1.47101e-014 2.24627e-014
lhumerus 0.534681 -14.447 67.6318
lradius 61.8599
lwrist 30.8554
lhand -25.5034 6.42189
lfingers 7.12502
lthumb 1.0254 36.3992
rfemur -45.7241 -11.5303 26.5715
rtibia 67.1967
rfoot -34.5602 -19.7669
rtoes -5.69079
lfemur -56.0916 14.6419 -28.2412
ltibia 57.7036
lfoot -15.8245 14.0191
ltoes -4.30293
